<mxfile host="Electron" modified="2024-04-29T14:28:32.401Z" agent="Mozilla/5.0 (Windows NT 10.0; Win64; x64) AppleWebKit/537.36 (KHTML, like Gecko) draw.io/21.7.5 Chrome/114.0.5735.289 Electron/25.8.1 Safari/537.36" etag="ifhp8HNz_7Foa58CLY3a" version="21.7.5" type="device">
  <diagram name="Page-1" id="kNeudouH4Nu4WU5zu_Dr">
    <mxGraphModel dx="1196" dy="631" grid="1" gridSize="10" guides="1" tooltips="1" connect="1" arrows="1" fold="1" page="1" pageScale="1" pageWidth="827" pageHeight="1169" math="0" shadow="0">
      <root>
        <mxCell id="0" />
        <mxCell id="1" parent="0" />
        <mxCell id="eoisSwrV664iuE3v3p14-1" value="&lt;p style=&quot;margin:0px;margin-top:4px;text-align:center;&quot;&gt;&lt;i&gt;&amp;lt;&amp;lt;Abstract&amp;gt;&amp;gt;&lt;/i&gt;&lt;br&gt;&lt;b&gt;CreadorProductoFinanciero&lt;/b&gt;&lt;/p&gt;&lt;hr size=&quot;1&quot;&gt;&lt;p style=&quot;margin:0px;margin-left:4px;&quot;&gt;-&amp;nbsp;&lt;/p&gt;&lt;hr size=&quot;1&quot;&gt;&lt;p style=&quot;margin:0px;margin-left:4px;&quot;&gt;+ &amp;lt;&amp;lt;abstract&amp;gt;&amp;gt; crearProducto():ProductoFinanciero&lt;/p&gt;" style="verticalAlign=top;align=left;overflow=fill;fontSize=12;fontFamily=Helvetica;html=1;whiteSpace=wrap;" vertex="1" parent="1">
          <mxGeometry x="660" y="80" width="290" height="100" as="geometry" />
        </mxCell>
        <mxCell id="eoisSwrV664iuE3v3p14-31" value="" style="group" vertex="1" connectable="0" parent="1">
          <mxGeometry x="40" y="240" width="1530" height="90" as="geometry" />
        </mxCell>
        <mxCell id="eoisSwrV664iuE3v3p14-2" value="CreadorCompraDolares" style="swimlane;fontStyle=1;align=center;verticalAlign=top;childLayout=stackLayout;horizontal=1;startSize=26;horizontalStack=0;resizeParent=1;resizeParentMax=0;resizeLast=0;collapsible=1;marginBottom=0;whiteSpace=wrap;html=1;" vertex="1" parent="eoisSwrV664iuE3v3p14-31">
          <mxGeometry width="230" height="90" as="geometry" />
        </mxCell>
        <mxCell id="eoisSwrV664iuE3v3p14-3" value="-&amp;nbsp;" style="text;strokeColor=none;fillColor=none;align=left;verticalAlign=top;spacingLeft=4;spacingRight=4;overflow=hidden;rotatable=0;points=[[0,0.5],[1,0.5]];portConstraint=eastwest;whiteSpace=wrap;html=1;" vertex="1" parent="eoisSwrV664iuE3v3p14-2">
          <mxGeometry y="26" width="230" height="26" as="geometry" />
        </mxCell>
        <mxCell id="eoisSwrV664iuE3v3p14-4" value="" style="line;strokeWidth=1;fillColor=none;align=left;verticalAlign=middle;spacingTop=-1;spacingLeft=3;spacingRight=3;rotatable=0;labelPosition=right;points=[];portConstraint=eastwest;strokeColor=inherit;" vertex="1" parent="eoisSwrV664iuE3v3p14-2">
          <mxGeometry y="52" width="230" height="8" as="geometry" />
        </mxCell>
        <mxCell id="eoisSwrV664iuE3v3p14-5" value="+ crearProducto():ProductoFinanciero" style="text;strokeColor=none;fillColor=none;align=left;verticalAlign=top;spacingLeft=4;spacingRight=4;overflow=hidden;rotatable=0;points=[[0,0.5],[1,0.5]];portConstraint=eastwest;whiteSpace=wrap;html=1;" vertex="1" parent="eoisSwrV664iuE3v3p14-2">
          <mxGeometry y="60" width="230" height="30" as="geometry" />
        </mxCell>
        <mxCell id="eoisSwrV664iuE3v3p14-10" value="CreadorCompraPesos" style="swimlane;fontStyle=1;align=center;verticalAlign=top;childLayout=stackLayout;horizontal=1;startSize=26;horizontalStack=0;resizeParent=1;resizeParentMax=0;resizeLast=0;collapsible=1;marginBottom=0;whiteSpace=wrap;html=1;" vertex="1" parent="eoisSwrV664iuE3v3p14-31">
          <mxGeometry x="259" width="230" height="90" as="geometry" />
        </mxCell>
        <mxCell id="eoisSwrV664iuE3v3p14-11" value="-&amp;nbsp;" style="text;strokeColor=none;fillColor=none;align=left;verticalAlign=top;spacingLeft=4;spacingRight=4;overflow=hidden;rotatable=0;points=[[0,0.5],[1,0.5]];portConstraint=eastwest;whiteSpace=wrap;html=1;" vertex="1" parent="eoisSwrV664iuE3v3p14-10">
          <mxGeometry y="26" width="230" height="26" as="geometry" />
        </mxCell>
        <mxCell id="eoisSwrV664iuE3v3p14-12" value="" style="line;strokeWidth=1;fillColor=none;align=left;verticalAlign=middle;spacingTop=-1;spacingLeft=3;spacingRight=3;rotatable=0;labelPosition=right;points=[];portConstraint=eastwest;strokeColor=inherit;" vertex="1" parent="eoisSwrV664iuE3v3p14-10">
          <mxGeometry y="52" width="230" height="8" as="geometry" />
        </mxCell>
        <mxCell id="eoisSwrV664iuE3v3p14-13" value="+ crearProducto():ProductoFinanciero" style="text;strokeColor=none;fillColor=none;align=left;verticalAlign=top;spacingLeft=4;spacingRight=4;overflow=hidden;rotatable=0;points=[[0,0.5],[1,0.5]];portConstraint=eastwest;whiteSpace=wrap;html=1;" vertex="1" parent="eoisSwrV664iuE3v3p14-10">
          <mxGeometry y="60" width="230" height="30" as="geometry" />
        </mxCell>
        <mxCell id="eoisSwrV664iuE3v3p14-14" value="CreadorPlazoFijo" style="swimlane;fontStyle=1;align=center;verticalAlign=top;childLayout=stackLayout;horizontal=1;startSize=26;horizontalStack=0;resizeParent=1;resizeParentMax=0;resizeLast=0;collapsible=1;marginBottom=0;whiteSpace=wrap;html=1;" vertex="1" parent="eoisSwrV664iuE3v3p14-31">
          <mxGeometry x="520" width="230" height="90" as="geometry" />
        </mxCell>
        <mxCell id="eoisSwrV664iuE3v3p14-15" value="-&amp;nbsp;" style="text;strokeColor=none;fillColor=none;align=left;verticalAlign=top;spacingLeft=4;spacingRight=4;overflow=hidden;rotatable=0;points=[[0,0.5],[1,0.5]];portConstraint=eastwest;whiteSpace=wrap;html=1;" vertex="1" parent="eoisSwrV664iuE3v3p14-14">
          <mxGeometry y="26" width="230" height="26" as="geometry" />
        </mxCell>
        <mxCell id="eoisSwrV664iuE3v3p14-16" value="" style="line;strokeWidth=1;fillColor=none;align=left;verticalAlign=middle;spacingTop=-1;spacingLeft=3;spacingRight=3;rotatable=0;labelPosition=right;points=[];portConstraint=eastwest;strokeColor=inherit;" vertex="1" parent="eoisSwrV664iuE3v3p14-14">
          <mxGeometry y="52" width="230" height="8" as="geometry" />
        </mxCell>
        <mxCell id="eoisSwrV664iuE3v3p14-17" value="+ crearProducto():ProductoFinanciero" style="text;strokeColor=none;fillColor=none;align=left;verticalAlign=top;spacingLeft=4;spacingRight=4;overflow=hidden;rotatable=0;points=[[0,0.5],[1,0.5]];portConstraint=eastwest;whiteSpace=wrap;html=1;" vertex="1" parent="eoisSwrV664iuE3v3p14-14">
          <mxGeometry y="60" width="230" height="30" as="geometry" />
        </mxCell>
        <mxCell id="eoisSwrV664iuE3v3p14-18" value="CreadorCompraBonoBajoRiesgo" style="swimlane;fontStyle=1;align=center;verticalAlign=top;childLayout=stackLayout;horizontal=1;startSize=26;horizontalStack=0;resizeParent=1;resizeParentMax=0;resizeLast=0;collapsible=1;marginBottom=0;whiteSpace=wrap;html=1;" vertex="1" parent="eoisSwrV664iuE3v3p14-31">
          <mxGeometry x="780" width="230" height="90" as="geometry" />
        </mxCell>
        <mxCell id="eoisSwrV664iuE3v3p14-19" value="-&amp;nbsp;" style="text;strokeColor=none;fillColor=none;align=left;verticalAlign=top;spacingLeft=4;spacingRight=4;overflow=hidden;rotatable=0;points=[[0,0.5],[1,0.5]];portConstraint=eastwest;whiteSpace=wrap;html=1;" vertex="1" parent="eoisSwrV664iuE3v3p14-18">
          <mxGeometry y="26" width="230" height="26" as="geometry" />
        </mxCell>
        <mxCell id="eoisSwrV664iuE3v3p14-20" value="" style="line;strokeWidth=1;fillColor=none;align=left;verticalAlign=middle;spacingTop=-1;spacingLeft=3;spacingRight=3;rotatable=0;labelPosition=right;points=[];portConstraint=eastwest;strokeColor=inherit;" vertex="1" parent="eoisSwrV664iuE3v3p14-18">
          <mxGeometry y="52" width="230" height="8" as="geometry" />
        </mxCell>
        <mxCell id="eoisSwrV664iuE3v3p14-21" value="+ crearProducto():ProductoFinanciero" style="text;strokeColor=none;fillColor=none;align=left;verticalAlign=top;spacingLeft=4;spacingRight=4;overflow=hidden;rotatable=0;points=[[0,0.5],[1,0.5]];portConstraint=eastwest;whiteSpace=wrap;html=1;" vertex="1" parent="eoisSwrV664iuE3v3p14-18">
          <mxGeometry y="60" width="230" height="30" as="geometry" />
        </mxCell>
        <mxCell id="eoisSwrV664iuE3v3p14-23" value="CreadorCompraBonoAltoRiesgo" style="swimlane;fontStyle=1;align=center;verticalAlign=top;childLayout=stackLayout;horizontal=1;startSize=26;horizontalStack=0;resizeParent=1;resizeParentMax=0;resizeLast=0;collapsible=1;marginBottom=0;whiteSpace=wrap;html=1;" vertex="1" parent="eoisSwrV664iuE3v3p14-31">
          <mxGeometry x="1040" width="230" height="90" as="geometry" />
        </mxCell>
        <mxCell id="eoisSwrV664iuE3v3p14-24" value="-&amp;nbsp;" style="text;strokeColor=none;fillColor=none;align=left;verticalAlign=top;spacingLeft=4;spacingRight=4;overflow=hidden;rotatable=0;points=[[0,0.5],[1,0.5]];portConstraint=eastwest;whiteSpace=wrap;html=1;" vertex="1" parent="eoisSwrV664iuE3v3p14-23">
          <mxGeometry y="26" width="230" height="26" as="geometry" />
        </mxCell>
        <mxCell id="eoisSwrV664iuE3v3p14-25" value="" style="line;strokeWidth=1;fillColor=none;align=left;verticalAlign=middle;spacingTop=-1;spacingLeft=3;spacingRight=3;rotatable=0;labelPosition=right;points=[];portConstraint=eastwest;strokeColor=inherit;" vertex="1" parent="eoisSwrV664iuE3v3p14-23">
          <mxGeometry y="52" width="230" height="8" as="geometry" />
        </mxCell>
        <mxCell id="eoisSwrV664iuE3v3p14-26" value="+ crearProducto():ProductoFinanciero" style="text;strokeColor=none;fillColor=none;align=left;verticalAlign=top;spacingLeft=4;spacingRight=4;overflow=hidden;rotatable=0;points=[[0,0.5],[1,0.5]];portConstraint=eastwest;whiteSpace=wrap;html=1;" vertex="1" parent="eoisSwrV664iuE3v3p14-23">
          <mxGeometry y="60" width="230" height="30" as="geometry" />
        </mxCell>
        <mxCell id="eoisSwrV664iuE3v3p14-27" value="CreadorProductoCombinado" style="swimlane;fontStyle=1;align=center;verticalAlign=top;childLayout=stackLayout;horizontal=1;startSize=26;horizontalStack=0;resizeParent=1;resizeParentMax=0;resizeLast=0;collapsible=1;marginBottom=0;whiteSpace=wrap;html=1;" vertex="1" parent="eoisSwrV664iuE3v3p14-31">
          <mxGeometry x="1300" width="230" height="90" as="geometry" />
        </mxCell>
        <mxCell id="eoisSwrV664iuE3v3p14-28" value="-&amp;nbsp;" style="text;strokeColor=none;fillColor=none;align=left;verticalAlign=top;spacingLeft=4;spacingRight=4;overflow=hidden;rotatable=0;points=[[0,0.5],[1,0.5]];portConstraint=eastwest;whiteSpace=wrap;html=1;" vertex="1" parent="eoisSwrV664iuE3v3p14-27">
          <mxGeometry y="26" width="230" height="26" as="geometry" />
        </mxCell>
        <mxCell id="eoisSwrV664iuE3v3p14-29" value="" style="line;strokeWidth=1;fillColor=none;align=left;verticalAlign=middle;spacingTop=-1;spacingLeft=3;spacingRight=3;rotatable=0;labelPosition=right;points=[];portConstraint=eastwest;strokeColor=inherit;" vertex="1" parent="eoisSwrV664iuE3v3p14-27">
          <mxGeometry y="52" width="230" height="8" as="geometry" />
        </mxCell>
        <mxCell id="eoisSwrV664iuE3v3p14-30" value="+ crearProducto():ProductoFinanciero" style="text;strokeColor=none;fillColor=none;align=left;verticalAlign=top;spacingLeft=4;spacingRight=4;overflow=hidden;rotatable=0;points=[[0,0.5],[1,0.5]];portConstraint=eastwest;whiteSpace=wrap;html=1;" vertex="1" parent="eoisSwrV664iuE3v3p14-27">
          <mxGeometry y="60" width="230" height="30" as="geometry" />
        </mxCell>
        <mxCell id="eoisSwrV664iuE3v3p14-33" value="" style="endArrow=block;endSize=16;endFill=0;html=1;rounded=0;exitX=0.5;exitY=0;exitDx=0;exitDy=0;entryX=0.5;entryY=1;entryDx=0;entryDy=0;edgeStyle=orthogonalEdgeStyle;" edge="1" parent="1" source="eoisSwrV664iuE3v3p14-27" target="eoisSwrV664iuE3v3p14-1">
          <mxGeometry width="160" relative="1" as="geometry">
            <mxPoint x="1300" y="360" as="sourcePoint" />
            <mxPoint x="1460" y="360" as="targetPoint" />
          </mxGeometry>
        </mxCell>
        <mxCell id="eoisSwrV664iuE3v3p14-34" value="" style="endArrow=block;endSize=16;endFill=0;html=1;rounded=0;exitX=0.5;exitY=0;exitDx=0;exitDy=0;entryX=0.5;entryY=1;entryDx=0;entryDy=0;edgeStyle=orthogonalEdgeStyle;" edge="1" parent="1" source="eoisSwrV664iuE3v3p14-23" target="eoisSwrV664iuE3v3p14-1">
          <mxGeometry width="160" relative="1" as="geometry">
            <mxPoint x="1465" y="250" as="sourcePoint" />
            <mxPoint x="815" y="200" as="targetPoint" />
          </mxGeometry>
        </mxCell>
        <mxCell id="eoisSwrV664iuE3v3p14-35" value="" style="endArrow=block;endSize=16;endFill=0;html=1;rounded=0;exitX=0.5;exitY=0;exitDx=0;exitDy=0;entryX=0.5;entryY=1;entryDx=0;entryDy=0;edgeStyle=orthogonalEdgeStyle;" edge="1" parent="1" source="eoisSwrV664iuE3v3p14-18" target="eoisSwrV664iuE3v3p14-1">
          <mxGeometry width="160" relative="1" as="geometry">
            <mxPoint x="1475" y="260" as="sourcePoint" />
            <mxPoint x="825" y="210" as="targetPoint" />
          </mxGeometry>
        </mxCell>
        <mxCell id="eoisSwrV664iuE3v3p14-36" value="" style="endArrow=block;endSize=16;endFill=0;html=1;rounded=0;exitX=0.5;exitY=0;exitDx=0;exitDy=0;entryX=0.5;entryY=1;entryDx=0;entryDy=0;edgeStyle=orthogonalEdgeStyle;" edge="1" parent="1" source="eoisSwrV664iuE3v3p14-14" target="eoisSwrV664iuE3v3p14-1">
          <mxGeometry width="160" relative="1" as="geometry">
            <mxPoint x="1485" y="270" as="sourcePoint" />
            <mxPoint x="835" y="220" as="targetPoint" />
          </mxGeometry>
        </mxCell>
        <mxCell id="eoisSwrV664iuE3v3p14-37" value="" style="endArrow=block;endSize=16;endFill=0;html=1;rounded=0;exitX=0.5;exitY=0;exitDx=0;exitDy=0;entryX=0.5;entryY=1;entryDx=0;entryDy=0;edgeStyle=orthogonalEdgeStyle;" edge="1" parent="1" source="eoisSwrV664iuE3v3p14-10" target="eoisSwrV664iuE3v3p14-1">
          <mxGeometry width="160" relative="1" as="geometry">
            <mxPoint x="1495" y="280" as="sourcePoint" />
            <mxPoint x="845" y="230" as="targetPoint" />
          </mxGeometry>
        </mxCell>
        <mxCell id="eoisSwrV664iuE3v3p14-38" value="" style="endArrow=block;endSize=16;endFill=0;html=1;rounded=0;exitX=0.5;exitY=0;exitDx=0;exitDy=0;entryX=0.5;entryY=1;entryDx=0;entryDy=0;edgeStyle=orthogonalEdgeStyle;" edge="1" parent="1" source="eoisSwrV664iuE3v3p14-2" target="eoisSwrV664iuE3v3p14-1">
          <mxGeometry width="160" relative="1" as="geometry">
            <mxPoint x="424" y="250" as="sourcePoint" />
            <mxPoint x="815" y="200" as="targetPoint" />
          </mxGeometry>
        </mxCell>
        <mxCell id="eoisSwrV664iuE3v3p14-39" value="&lt;p style=&quot;margin:0px;margin-top:4px;text-align:center;&quot;&gt;&lt;i&gt;&amp;lt;&amp;lt;Abstract&amp;gt;&amp;gt;&lt;/i&gt;&lt;br&gt;&lt;b&gt;ProductoFinanciero&lt;/b&gt;&lt;/p&gt;&lt;hr size=&quot;1&quot;&gt;&lt;p style=&quot;margin:0px;margin-left:4px;&quot;&gt;- fechaOperacion:Date&lt;/p&gt;&lt;p style=&quot;margin:0px;margin-left:4px;&quot;&gt;- ?:?&lt;/p&gt;&lt;hr size=&quot;1&quot;&gt;&lt;p style=&quot;margin:0px;margin-left:4px;&quot;&gt;+ &amp;lt;&amp;lt;abstract&amp;gt;&amp;gt; retornoInversion (montoInicial:Real): Real&lt;/p&gt;" style="verticalAlign=top;align=left;overflow=fill;fontSize=12;fontFamily=Helvetica;html=1;whiteSpace=wrap;" vertex="1" parent="1">
          <mxGeometry x="1750" y="80" width="320" height="110" as="geometry" />
        </mxCell>
        <mxCell id="eoisSwrV664iuE3v3p14-40" value="&lt;p style=&quot;margin:0px;margin-top:4px;text-align:center;&quot;&gt;&lt;i&gt;&amp;lt;&amp;lt;Abstract&amp;gt;&amp;gt;&lt;/i&gt;&lt;br&gt;&lt;b&gt;CompraDivisa&lt;/b&gt;&lt;/p&gt;&lt;hr size=&quot;1&quot;&gt;&lt;p style=&quot;margin:0px;margin-left:4px;&quot;&gt;- valorCompra:Real&lt;/p&gt;&lt;hr size=&quot;1&quot;&gt;&lt;p style=&quot;margin:0px;margin-left:4px;&quot;&gt;+&lt;/p&gt;" style="verticalAlign=top;align=left;overflow=fill;fontSize=12;fontFamily=Helvetica;html=1;whiteSpace=wrap;" vertex="1" parent="1">
          <mxGeometry x="1630" y="240" width="120" height="90" as="geometry" />
        </mxCell>
        <mxCell id="eoisSwrV664iuE3v3p14-41" value="&lt;p style=&quot;margin:0px;margin-top:4px;text-align:center;&quot;&gt;&lt;i&gt;&amp;lt;&amp;lt;Abstract&amp;gt;&amp;gt;&lt;/i&gt;&lt;br&gt;&lt;b&gt;CompraBono&lt;/b&gt;&lt;/p&gt;&lt;hr size=&quot;1&quot;&gt;&lt;p style=&quot;margin:0px;margin-left:4px;&quot;&gt;- parking:Integer&lt;/p&gt;&lt;hr size=&quot;1&quot;&gt;&lt;p style=&quot;margin:0px;margin-left:4px;&quot;&gt;+&lt;/p&gt;" style="verticalAlign=top;align=left;overflow=fill;fontSize=12;fontFamily=Helvetica;html=1;whiteSpace=wrap;" vertex="1" parent="1">
          <mxGeometry x="1850" y="240" width="120" height="90" as="geometry" />
        </mxCell>
        <mxCell id="eoisSwrV664iuE3v3p14-68" value="ProductoCombinado" style="swimlane;fontStyle=1;align=center;verticalAlign=top;childLayout=stackLayout;horizontal=1;startSize=26;horizontalStack=0;resizeParent=1;resizeParentMax=0;resizeLast=0;collapsible=1;marginBottom=0;whiteSpace=wrap;html=1;" vertex="1" parent="1">
          <mxGeometry x="2050" y="240" width="160" height="86" as="geometry" />
        </mxCell>
        <mxCell id="eoisSwrV664iuE3v3p14-69" value="-" style="text;strokeColor=none;fillColor=none;align=left;verticalAlign=top;spacingLeft=4;spacingRight=4;overflow=hidden;rotatable=0;points=[[0,0.5],[1,0.5]];portConstraint=eastwest;whiteSpace=wrap;html=1;" vertex="1" parent="eoisSwrV664iuE3v3p14-68">
          <mxGeometry y="26" width="160" height="26" as="geometry" />
        </mxCell>
        <mxCell id="eoisSwrV664iuE3v3p14-70" value="" style="line;strokeWidth=1;fillColor=none;align=left;verticalAlign=middle;spacingTop=-1;spacingLeft=3;spacingRight=3;rotatable=0;labelPosition=right;points=[];portConstraint=eastwest;strokeColor=inherit;" vertex="1" parent="eoisSwrV664iuE3v3p14-68">
          <mxGeometry y="52" width="160" height="8" as="geometry" />
        </mxCell>
        <mxCell id="eoisSwrV664iuE3v3p14-71" value="-" style="text;strokeColor=none;fillColor=none;align=left;verticalAlign=top;spacingLeft=4;spacingRight=4;overflow=hidden;rotatable=0;points=[[0,0.5],[1,0.5]];portConstraint=eastwest;whiteSpace=wrap;html=1;" vertex="1" parent="eoisSwrV664iuE3v3p14-68">
          <mxGeometry y="60" width="160" height="26" as="geometry" />
        </mxCell>
        <mxCell id="eoisSwrV664iuE3v3p14-72" value="" style="endArrow=block;endSize=16;endFill=0;html=1;rounded=0;entryX=0.5;entryY=1;entryDx=0;entryDy=0;exitX=0.5;exitY=0;exitDx=0;exitDy=0;edgeStyle=orthogonalEdgeStyle;" edge="1" parent="1" source="eoisSwrV664iuE3v3p14-40" target="eoisSwrV664iuE3v3p14-39">
          <mxGeometry width="160" relative="1" as="geometry">
            <mxPoint x="1740" y="430" as="sourcePoint" />
            <mxPoint x="1900" y="430" as="targetPoint" />
          </mxGeometry>
        </mxCell>
        <mxCell id="eoisSwrV664iuE3v3p14-73" value="" style="endArrow=block;endSize=16;endFill=0;html=1;rounded=0;entryX=0.5;entryY=1;entryDx=0;entryDy=0;exitX=0.5;exitY=0;exitDx=0;exitDy=0;edgeStyle=orthogonalEdgeStyle;" edge="1" parent="1" source="eoisSwrV664iuE3v3p14-68" target="eoisSwrV664iuE3v3p14-39">
          <mxGeometry width="160" relative="1" as="geometry">
            <mxPoint x="1700" y="250" as="sourcePoint" />
            <mxPoint x="1870" y="200" as="targetPoint" />
          </mxGeometry>
        </mxCell>
        <mxCell id="eoisSwrV664iuE3v3p14-74" value="" style="endArrow=block;endSize=16;endFill=0;html=1;rounded=0;entryX=0.5;entryY=1;entryDx=0;entryDy=0;exitX=0.5;exitY=0;exitDx=0;exitDy=0;edgeStyle=orthogonalEdgeStyle;" edge="1" parent="1" source="eoisSwrV664iuE3v3p14-41" target="eoisSwrV664iuE3v3p14-39">
          <mxGeometry width="160" relative="1" as="geometry">
            <mxPoint x="1710" y="260" as="sourcePoint" />
            <mxPoint x="1880" y="210" as="targetPoint" />
          </mxGeometry>
        </mxCell>
        <mxCell id="eoisSwrV664iuE3v3p14-75" value="Dolares" style="swimlane;fontStyle=1;align=center;verticalAlign=top;childLayout=stackLayout;horizontal=1;startSize=26;horizontalStack=0;resizeParent=1;resizeParentMax=0;resizeLast=0;collapsible=1;marginBottom=0;whiteSpace=wrap;html=1;" vertex="1" parent="1">
          <mxGeometry x="1600" y="380" width="76" height="86" as="geometry" />
        </mxCell>
        <mxCell id="eoisSwrV664iuE3v3p14-76" value="-" style="text;strokeColor=none;fillColor=none;align=left;verticalAlign=top;spacingLeft=4;spacingRight=4;overflow=hidden;rotatable=0;points=[[0,0.5],[1,0.5]];portConstraint=eastwest;whiteSpace=wrap;html=1;" vertex="1" parent="eoisSwrV664iuE3v3p14-75">
          <mxGeometry y="26" width="76" height="26" as="geometry" />
        </mxCell>
        <mxCell id="eoisSwrV664iuE3v3p14-77" value="" style="line;strokeWidth=1;fillColor=none;align=left;verticalAlign=middle;spacingTop=-1;spacingLeft=3;spacingRight=3;rotatable=0;labelPosition=right;points=[];portConstraint=eastwest;strokeColor=inherit;" vertex="1" parent="eoisSwrV664iuE3v3p14-75">
          <mxGeometry y="52" width="76" height="8" as="geometry" />
        </mxCell>
        <mxCell id="eoisSwrV664iuE3v3p14-78" value="-" style="text;strokeColor=none;fillColor=none;align=left;verticalAlign=top;spacingLeft=4;spacingRight=4;overflow=hidden;rotatable=0;points=[[0,0.5],[1,0.5]];portConstraint=eastwest;whiteSpace=wrap;html=1;" vertex="1" parent="eoisSwrV664iuE3v3p14-75">
          <mxGeometry y="60" width="76" height="26" as="geometry" />
        </mxCell>
        <mxCell id="eoisSwrV664iuE3v3p14-83" value="Pesos" style="swimlane;fontStyle=1;align=center;verticalAlign=top;childLayout=stackLayout;horizontal=1;startSize=26;horizontalStack=0;resizeParent=1;resizeParentMax=0;resizeLast=0;collapsible=1;marginBottom=0;whiteSpace=wrap;html=1;" vertex="1" parent="1">
          <mxGeometry x="1700" y="380" width="76" height="86" as="geometry" />
        </mxCell>
        <mxCell id="eoisSwrV664iuE3v3p14-84" value="-" style="text;strokeColor=none;fillColor=none;align=left;verticalAlign=top;spacingLeft=4;spacingRight=4;overflow=hidden;rotatable=0;points=[[0,0.5],[1,0.5]];portConstraint=eastwest;whiteSpace=wrap;html=1;" vertex="1" parent="eoisSwrV664iuE3v3p14-83">
          <mxGeometry y="26" width="76" height="26" as="geometry" />
        </mxCell>
        <mxCell id="eoisSwrV664iuE3v3p14-85" value="" style="line;strokeWidth=1;fillColor=none;align=left;verticalAlign=middle;spacingTop=-1;spacingLeft=3;spacingRight=3;rotatable=0;labelPosition=right;points=[];portConstraint=eastwest;strokeColor=inherit;" vertex="1" parent="eoisSwrV664iuE3v3p14-83">
          <mxGeometry y="52" width="76" height="8" as="geometry" />
        </mxCell>
        <mxCell id="eoisSwrV664iuE3v3p14-86" value="-" style="text;strokeColor=none;fillColor=none;align=left;verticalAlign=top;spacingLeft=4;spacingRight=4;overflow=hidden;rotatable=0;points=[[0,0.5],[1,0.5]];portConstraint=eastwest;whiteSpace=wrap;html=1;" vertex="1" parent="eoisSwrV664iuE3v3p14-83">
          <mxGeometry y="60" width="76" height="26" as="geometry" />
        </mxCell>
        <mxCell id="eoisSwrV664iuE3v3p14-87" value="BajoRiesgo" style="swimlane;fontStyle=1;align=center;verticalAlign=top;childLayout=stackLayout;horizontal=1;startSize=26;horizontalStack=0;resizeParent=1;resizeParentMax=0;resizeLast=0;collapsible=1;marginBottom=0;whiteSpace=wrap;html=1;" vertex="1" parent="1">
          <mxGeometry x="1800" y="380" width="110" height="86" as="geometry" />
        </mxCell>
        <mxCell id="eoisSwrV664iuE3v3p14-88" value="-" style="text;strokeColor=none;fillColor=none;align=left;verticalAlign=top;spacingLeft=4;spacingRight=4;overflow=hidden;rotatable=0;points=[[0,0.5],[1,0.5]];portConstraint=eastwest;whiteSpace=wrap;html=1;" vertex="1" parent="eoisSwrV664iuE3v3p14-87">
          <mxGeometry y="26" width="110" height="26" as="geometry" />
        </mxCell>
        <mxCell id="eoisSwrV664iuE3v3p14-89" value="" style="line;strokeWidth=1;fillColor=none;align=left;verticalAlign=middle;spacingTop=-1;spacingLeft=3;spacingRight=3;rotatable=0;labelPosition=right;points=[];portConstraint=eastwest;strokeColor=inherit;" vertex="1" parent="eoisSwrV664iuE3v3p14-87">
          <mxGeometry y="52" width="110" height="8" as="geometry" />
        </mxCell>
        <mxCell id="eoisSwrV664iuE3v3p14-90" value="-" style="text;strokeColor=none;fillColor=none;align=left;verticalAlign=top;spacingLeft=4;spacingRight=4;overflow=hidden;rotatable=0;points=[[0,0.5],[1,0.5]];portConstraint=eastwest;whiteSpace=wrap;html=1;" vertex="1" parent="eoisSwrV664iuE3v3p14-87">
          <mxGeometry y="60" width="110" height="26" as="geometry" />
        </mxCell>
        <mxCell id="eoisSwrV664iuE3v3p14-95" value="AltoRiesgo" style="swimlane;fontStyle=1;align=center;verticalAlign=top;childLayout=stackLayout;horizontal=1;startSize=26;horizontalStack=0;resizeParent=1;resizeParentMax=0;resizeLast=0;collapsible=1;marginBottom=0;whiteSpace=wrap;html=1;" vertex="1" parent="1">
          <mxGeometry x="1940" y="380" width="110" height="86" as="geometry" />
        </mxCell>
        <mxCell id="eoisSwrV664iuE3v3p14-96" value="-" style="text;strokeColor=none;fillColor=none;align=left;verticalAlign=top;spacingLeft=4;spacingRight=4;overflow=hidden;rotatable=0;points=[[0,0.5],[1,0.5]];portConstraint=eastwest;whiteSpace=wrap;html=1;" vertex="1" parent="eoisSwrV664iuE3v3p14-95">
          <mxGeometry y="26" width="110" height="26" as="geometry" />
        </mxCell>
        <mxCell id="eoisSwrV664iuE3v3p14-97" value="" style="line;strokeWidth=1;fillColor=none;align=left;verticalAlign=middle;spacingTop=-1;spacingLeft=3;spacingRight=3;rotatable=0;labelPosition=right;points=[];portConstraint=eastwest;strokeColor=inherit;" vertex="1" parent="eoisSwrV664iuE3v3p14-95">
          <mxGeometry y="52" width="110" height="8" as="geometry" />
        </mxCell>
        <mxCell id="eoisSwrV664iuE3v3p14-98" value="-" style="text;strokeColor=none;fillColor=none;align=left;verticalAlign=top;spacingLeft=4;spacingRight=4;overflow=hidden;rotatable=0;points=[[0,0.5],[1,0.5]];portConstraint=eastwest;whiteSpace=wrap;html=1;" vertex="1" parent="eoisSwrV664iuE3v3p14-95">
          <mxGeometry y="60" width="110" height="26" as="geometry" />
        </mxCell>
        <mxCell id="eoisSwrV664iuE3v3p14-99" value="" style="endArrow=block;endSize=16;endFill=0;html=1;rounded=0;entryX=0.5;entryY=1;entryDx=0;entryDy=0;exitX=0.5;exitY=0;exitDx=0;exitDy=0;edgeStyle=orthogonalEdgeStyle;" edge="1" parent="1" source="eoisSwrV664iuE3v3p14-75" target="eoisSwrV664iuE3v3p14-40">
          <mxGeometry width="160" relative="1" as="geometry">
            <mxPoint x="1700" y="250" as="sourcePoint" />
            <mxPoint x="1920" y="200" as="targetPoint" />
          </mxGeometry>
        </mxCell>
        <mxCell id="eoisSwrV664iuE3v3p14-100" value="" style="endArrow=block;endSize=16;endFill=0;html=1;rounded=0;entryX=0.5;entryY=1;entryDx=0;entryDy=0;exitX=0.5;exitY=0;exitDx=0;exitDy=0;edgeStyle=orthogonalEdgeStyle;" edge="1" parent="1" source="eoisSwrV664iuE3v3p14-83" target="eoisSwrV664iuE3v3p14-40">
          <mxGeometry width="160" relative="1" as="geometry">
            <mxPoint x="1648" y="400" as="sourcePoint" />
            <mxPoint x="1700" y="350" as="targetPoint" />
          </mxGeometry>
        </mxCell>
        <mxCell id="eoisSwrV664iuE3v3p14-101" value="" style="endArrow=block;endSize=16;endFill=0;html=1;rounded=0;entryX=0.5;entryY=1;entryDx=0;entryDy=0;exitX=0.5;exitY=0;exitDx=0;exitDy=0;edgeStyle=orthogonalEdgeStyle;" edge="1" parent="1" source="eoisSwrV664iuE3v3p14-87" target="eoisSwrV664iuE3v3p14-41">
          <mxGeometry width="160" relative="1" as="geometry">
            <mxPoint x="1748" y="400" as="sourcePoint" />
            <mxPoint x="1700" y="350" as="targetPoint" />
          </mxGeometry>
        </mxCell>
        <mxCell id="eoisSwrV664iuE3v3p14-102" value="" style="endArrow=block;endSize=16;endFill=0;html=1;rounded=0;entryX=0.5;entryY=1;entryDx=0;entryDy=0;exitX=0.5;exitY=0;exitDx=0;exitDy=0;edgeStyle=orthogonalEdgeStyle;" edge="1" parent="1" source="eoisSwrV664iuE3v3p14-95" target="eoisSwrV664iuE3v3p14-41">
          <mxGeometry width="160" relative="1" as="geometry">
            <mxPoint x="1865" y="400" as="sourcePoint" />
            <mxPoint x="1920" y="350" as="targetPoint" />
          </mxGeometry>
        </mxCell>
        <mxCell id="eoisSwrV664iuE3v3p14-103" value="1" style="endArrow=open;html=1;endSize=12;startArrow=diamondThin;startSize=14;startFill=1;edgeStyle=orthogonalEdgeStyle;align=left;verticalAlign=bottom;rounded=0;entryX=1;entryY=0.5;entryDx=0;entryDy=0;exitX=0.75;exitY=0;exitDx=0;exitDy=0;" edge="1" parent="1" source="eoisSwrV664iuE3v3p14-27" target="eoisSwrV664iuE3v3p14-1">
          <mxGeometry x="-1" y="-7" relative="1" as="geometry">
            <mxPoint x="1280" y="180" as="sourcePoint" />
            <mxPoint x="1440" y="180" as="targetPoint" />
            <mxPoint x="1" as="offset" />
          </mxGeometry>
        </mxCell>
        <mxCell id="eoisSwrV664iuE3v3p14-105" value="1" style="endArrow=open;html=1;endSize=12;startArrow=diamondThin;startSize=14;startFill=1;edgeStyle=orthogonalEdgeStyle;align=left;verticalAlign=bottom;rounded=0;entryX=1;entryY=0.5;entryDx=0;entryDy=0;exitX=0.75;exitY=0;exitDx=0;exitDy=0;" edge="1" parent="1" source="eoisSwrV664iuE3v3p14-68" target="eoisSwrV664iuE3v3p14-39">
          <mxGeometry x="-1" y="-7" relative="1" as="geometry">
            <mxPoint x="1523" y="250" as="sourcePoint" />
            <mxPoint x="960" y="140" as="targetPoint" />
            <mxPoint x="1" as="offset" />
          </mxGeometry>
        </mxCell>
        <mxCell id="eoisSwrV664iuE3v3p14-106" value="creates" style="endArrow=open;endSize=12;dashed=1;html=1;rounded=0;exitX=1;exitY=0.25;exitDx=0;exitDy=0;entryX=0;entryY=0.25;entryDx=0;entryDy=0;" edge="1" parent="1" source="eoisSwrV664iuE3v3p14-1" target="eoisSwrV664iuE3v3p14-39">
          <mxGeometry width="160" relative="1" as="geometry">
            <mxPoint x="1180" y="80" as="sourcePoint" />
            <mxPoint x="1340" y="80" as="targetPoint" />
          </mxGeometry>
        </mxCell>
        <mxCell id="eoisSwrV664iuE3v3p14-107" value="*" style="text;html=1;align=center;verticalAlign=middle;resizable=0;points=[];autosize=1;strokeColor=none;fillColor=none;" vertex="1" parent="1">
          <mxGeometry x="955" y="128" width="30" height="30" as="geometry" />
        </mxCell>
        <mxCell id="eoisSwrV664iuE3v3p14-108" value="*" style="text;html=1;align=center;verticalAlign=middle;resizable=0;points=[];autosize=1;strokeColor=none;fillColor=none;" vertex="1" parent="1">
          <mxGeometry x="2080" y="138" width="30" height="30" as="geometry" />
        </mxCell>
      </root>
    </mxGraphModel>
  </diagram>
</mxfile>
